<svg xmlns="http://www.w3.org/2000/svg" width="24" height="24" viewBox="0 0 24 24" fill="none">
  <path
    d="M16.856 10.921V4.199c0-.405-.338-.733-.755-.733H4.767c-.418 0-.756.328-.756.733V18.86c0 .405.338.733.756.733h7.85v1.466h-7.85C3.515 21.059 2.5 20.074 2.5 18.86V4.199C2.5 2.985 3.515 2 4.767 2h11.334c1.252 0 2.267.985 2.267 2.199v6.722h-1.512ZM8.477 4.808H6.565c-.834 0-1.511.656-1.511 1.466v7.389c-.003.504.102 1.003.31 1.466l.846 1.825.053.095c.275.427.757.688 1.277.689.522.001 1.008-.259 1.284-.689l.862-1.935c.211-.461.316-.961.31-1.466V6.274c0-.813-.682-1.471-1.519-1.466Zm0 1.466v1.532H6.565V6.274h1.912Zm-.204 8.261-.756 1.715-.755-1.715a2.14 2.14 0 0 1-.182-.872V9.264h1.897v4.399c-.006.301-.075.598-.204.872Zm6.785-6.517h-3.332a.733.733 0 0 1 0-1.466h3.332a.733.733 0 0 1 0 1.466Zm0 2.903h-3.332a.733.733 0 0 1 0-1.466h3.332a.733.733 0 0 1 0 1.466Zm5.236 6.355-.619-.344a3.792 3.792 0 0 0 0-1.862l.619-.345a.386.386 0 0 0 .151-.535l-.4-.674a.403.403 0 0 0-.552-.139l-.612.337a3.53 3.53 0 0 0-1.67-.931v-.682a.395.395 0 0 0-.4-.396h-.778a.395.395 0 0 0-.401.396v.682a3.55 3.55 0 0 0-1.692.946l-.612-.338a.403.403 0 0 0-.552.14l-.4.674a.386.386 0 0 0 .151.535l.619.345a3.792 3.792 0 0 0 0 1.862l-.619.344a.386.386 0 0 0-.151.535l.4.675c.115.184.36.245.552.139l.612-.337c.455.457 1.034.779 1.67.931v.681c-.014.232.184.424.423.411h.755a.395.395 0 0 0 .401-.396v-.682a3.53 3.53 0 0 0 1.67-.931l.612.337c.192.107.437.045.551-.139l.401-.674a.386.386 0 0 0-.129-.565Zm-3.883.675c-1.11 0-2.01-.873-2.01-1.95s.9-1.95 2.01-1.95 2.009.873 2.009 1.95-.899 1.95-2.009 1.95Z"
    fill="#6C829E"
  />
</svg>