<svg xmlns="http://www.w3.org/2000/svg" width="21.773" height="21.415" viewBox="0 0 21.773 21.415" fill="none">
  <path
    fill-rule="evenodd"
    clip-rule="evenodd"
    d="M15.802 5.496L15.802 4.803Q15.802 3.312 14.747 2.256Q13.692 1.2 12.202 1.2L9.571 1.2Q8.082 1.2 7.026 2.256Q5.971 3.312 5.971 4.803L5.971 5.496Q5.371 5.963 5.234 6.728Q5.088 7.551 5.565 8.236Q5.809 8.587 6.144 8.797Q6.213 10.632 7.531 11.952Q7.703 12.124 7.884 12.275L7.884 12.361Q7.75 12.397 7.597 12.436Q5.414 13 4.469 13.611Q2.623 14.804 2.587 17.047Q2.587 17.055 2.587 17.066L2.587 19.075Q2.587 19.547 2.921 19.881Q3.255 20.215 3.727 20.215L18.047 20.215Q18.519 20.215 18.853 19.881Q19.187 19.547 19.187 19.075L19.187 17.06Q19.15 14.804 17.305 13.611Q16.36 13 14.177 12.436L14.177 12.436L14.172 12.435Q14.022 12.396 13.89 12.361L13.89 12.275Q14.071 12.124 14.243 11.952Q15.561 10.632 15.629 8.797Q15.964 8.587 16.209 8.236Q16.686 7.55 16.539 6.727Q16.402 5.962 15.802 5.496ZM13.615 3.387Q14.115 3.887 14.189 4.562Q12.612 3.858 10.887 3.858Q9.162 3.858 7.584 4.562Q7.658 3.887 8.158 3.387Q8.745 2.8 9.571 2.8L12.202 2.8Q13.029 2.8 13.615 3.387ZM8.763 15.309Q8.182 14.728 7.985 13.989Q6.063 14.486 5.338 14.955Q4.211 15.683 4.187 17.069L4.187 18.615L17.587 18.615L17.587 17.06Q17.564 15.684 16.436 14.955Q15.711 14.486 13.788 13.989Q13.591 14.728 13.011 15.309Q12.13 16.191 10.887 16.191Q9.643 16.191 8.763 15.309ZM10.887 6.304C10.041 6.304 9.196 6.497 8.39 6.883C8.073 7.035 7.763 7.216 7.461 7.427C7.37 7.49 7.258 7.514 7.148 7.495C7.038 7.475 6.942 7.414 6.878 7.322C6.746 7.132 6.793 6.87 6.982 6.738C7.301 6.515 7.628 6.322 7.961 6.157C9.847 5.224 11.926 5.224 13.813 6.157C14.146 6.322 14.472 6.515 14.791 6.738C14.981 6.87 15.028 7.132 14.896 7.322C14.763 7.512 14.501 7.559 14.312 7.427C14.01 7.216 13.7 7.035 13.384 6.883C12.577 6.497 11.732 6.304 10.887 6.304ZM14.033 8.595C14.033 8.743 14.023 8.889 14.003 9.032C13.963 9.319 13.884 9.594 13.772 9.851C13.287 10.964 12.176 11.745 10.887 11.745C9.598 11.745 8.487 10.964 8.001 9.851C7.889 9.594 7.811 9.319 7.771 9.032C7.751 8.889 7.74 8.743 7.74 8.595L7.74 8.051C7.778 8.031 7.815 8.009 7.85 7.985C7.962 7.906 8.076 7.832 8.191 7.763C9.904 6.731 11.87 6.731 13.583 7.764C13.697 7.833 13.811 7.906 13.922 7.985C13.958 8.01 13.995 8.032 14.033 8.052L14.033 8.595ZM10.887 14.591C10.368 14.591 9.915 14.308 9.672 13.888C9.552 13.681 9.484 13.442 9.484 13.186L9.484 12.158C9.86 12.307 10.266 12.398 10.69 12.42C10.755 12.423 10.821 12.425 10.887 12.425C10.953 12.425 11.018 12.423 11.084 12.42C11.507 12.398 11.913 12.307 12.29 12.158L12.29 13.186C12.29 13.442 12.221 13.681 12.102 13.888C11.859 14.308 11.405 14.591 10.887 14.591Z"
    fill="#6C829E"
  />
</svg>